<svg xmlns="http://www.w3.org/2000/svg" xmlns:xlink="http://www.w3.org/1999/xlink" version="1.1" width="256" height="256" viewBox="0 0 256 256" xml:space="preserve">

<defs>
</defs>
<g style="stroke: none; stroke-width: 0; stroke-dasharray: none; stroke-linecap: butt; stroke-linejoin: miter; stroke-miterlimit: 10; fill: none; fill-rule: nonzero; opacity: 1;" transform="translate(1.4065934065934016 1.4065934065934016) scale(2.81 2.81)" >
	<path d="M 46 46 H 0 V 7.4 C 0 3.32 3.32 0 7.4 0 H 46 V 46 z M 2 44 h 42 V 2 H 7.4 C 4.423 2 2 4.423 2 7.4 V 44 z" style="stroke: none; stroke-width: 1; stroke-dasharray: none; stroke-linecap: butt; stroke-linejoin: miter; stroke-miterlimit: 10; fill: rgb(0,0,0); fill-rule: nonzero; opacity: 1;" transform=" matrix(1 0 0 1 0 0) " stroke-linecap="round" />
	<path d="M 23 33 c -0.552 0 -1 -0.448 -1 -1 V 14 c 0 -0.552 0.448 -1 1 -1 s 1 0.448 1 1 v 18 C 24 32.552 23.552 33 23 33 z" style="stroke: none; stroke-width: 1; stroke-dasharray: none; stroke-linecap: butt; stroke-linejoin: miter; stroke-miterlimit: 10; fill: rgb(0,0,0); fill-rule: nonzero; opacity: 1;" transform=" matrix(1 0 0 1 0 0) " stroke-linecap="round" />
	<path d="M 32 24 H 14 c -0.552 0 -1 -0.448 -1 -1 s 0.448 -1 1 -1 h 18 c 0.552 0 1 0.448 1 1 S 32.552 24 32 24 z" style="stroke: none; stroke-width: 1; stroke-dasharray: none; stroke-linecap: butt; stroke-linejoin: miter; stroke-miterlimit: 10; fill: rgb(0,0,0); fill-rule: nonzero; opacity: 1;" transform=" matrix(1 0 0 1 0 0) " stroke-linecap="round" />
	<path d="M 90 46 H 44 V 0 h 38.6 C 86.681 0 90 3.32 90 7.4 V 46 z M 46 44 h 42 V 7.4 C 88 4.423 85.577 2 82.6 2 H 46 V 44 z" style="stroke: none; stroke-width: 1; stroke-dasharray: none; stroke-linecap: butt; stroke-linejoin: miter; stroke-miterlimit: 10; fill: rgb(0,0,0); fill-rule: nonzero; opacity: 1;" transform=" matrix(1 0 0 1 0 0) " stroke-linecap="round" />
	<path d="M 76 24 H 58 c -0.553 0 -1 -0.448 -1 -1 s 0.447 -1 1 -1 h 18 c 0.553 0 1 0.448 1 1 S 76.553 24 76 24 z" style="stroke: none; stroke-width: 1; stroke-dasharray: none; stroke-linecap: butt; stroke-linejoin: miter; stroke-miterlimit: 10; fill: rgb(0,0,0); fill-rule: nonzero; opacity: 1;" transform=" matrix(1 0 0 1 0 0) " stroke-linecap="round" />
	<path d="M 46 90 H 7.4 C 3.32 90 0 86.681 0 82.6 V 44 h 46 V 90 z M 2 46 v 36.6 C 2 85.577 4.423 88 7.4 88 H 44 V 46 H 2 z" style="stroke: none; stroke-width: 1; stroke-dasharray: none; stroke-linecap: butt; stroke-linejoin: miter; stroke-miterlimit: 10; fill: rgb(0,0,0); fill-rule: nonzero; opacity: 1;" transform=" matrix(1 0 0 1 0 0) " stroke-linecap="round" />
	<path d="M 16.636 74.364 c -0.256 0 -0.512 -0.098 -0.707 -0.293 c -0.391 -0.391 -0.391 -1.023 0 -1.414 l 12.728 -12.729 c 0.391 -0.391 1.023 -0.391 1.414 0 s 0.391 1.023 0 1.414 L 17.343 74.071 C 17.148 74.267 16.892 74.364 16.636 74.364 z" style="stroke: none; stroke-width: 1; stroke-dasharray: none; stroke-linecap: butt; stroke-linejoin: miter; stroke-miterlimit: 10; fill: rgb(0,0,0); fill-rule: nonzero; opacity: 1;" transform=" matrix(1 0 0 1 0 0) " stroke-linecap="round" />
	<path d="M 29.364 74.364 c -0.256 0 -0.512 -0.098 -0.707 -0.293 L 15.929 61.343 c -0.391 -0.391 -0.391 -1.023 0 -1.414 s 1.023 -0.391 1.414 0 l 12.728 12.729 c 0.391 0.391 0.391 1.023 0 1.414 C 29.875 74.267 29.62 74.364 29.364 74.364 z" style="stroke: none; stroke-width: 1; stroke-dasharray: none; stroke-linecap: butt; stroke-linejoin: miter; stroke-miterlimit: 10; fill: rgb(0,0,0); fill-rule: nonzero; opacity: 1;" transform=" matrix(1 0 0 1 0 0) " stroke-linecap="round" />
	<path d="M 82.6 90 H 44 V 44 h 46 v 38.6 C 90 86.681 86.681 90 82.6 90 z M 46 88 h 36.6 c 2.978 0 5.4 -2.423 5.4 -5.4 V 46 H 46 V 88 z" style="stroke: none; stroke-width: 1; stroke-dasharray: none; stroke-linecap: butt; stroke-linejoin: miter; stroke-miterlimit: 10; fill: rgb(0,0,0); fill-rule: nonzero; opacity: 1;" transform=" matrix(1 0 0 1 0 0) " stroke-linecap="round" />
	<path d="M 76 68 H 58 c -0.553 0 -1 -0.447 -1 -1 s 0.447 -1 1 -1 h 18 c 0.553 0 1 0.447 1 1 S 76.553 68 76 68 z" style="stroke: none; stroke-width: 1; stroke-dasharray: none; stroke-linecap: butt; stroke-linejoin: miter; stroke-miterlimit: 10; fill: rgb(0,0,0); fill-rule: nonzero; opacity: 1;" transform=" matrix(1 0 0 1 0 0) " stroke-linecap="round" />
	<path d="M 68 61 h -2 c -0.553 0 -1 -0.447 -1 -1 s 0.447 -1 1 -1 h 2 c 0.553 0 1 0.447 1 1 S 68.553 61 68 61 z" style="stroke: none; stroke-width: 1; stroke-dasharray: none; stroke-linecap: butt; stroke-linejoin: miter; stroke-miterlimit: 10; fill: rgb(0,0,0); fill-rule: nonzero; opacity: 1;" transform=" matrix(1 0 0 1 0 0) " stroke-linecap="round" />
	<path d="M 68 75 h -2 c -0.553 0 -1 -0.447 -1 -1 s 0.447 -1 1 -1 h 2 c 0.553 0 1 0.447 1 1 S 68.553 75 68 75 z" style="stroke: none; stroke-width: 1; stroke-dasharray: none; stroke-linecap: butt; stroke-linejoin: miter; stroke-miterlimit: 10; fill: rgb(0,0,0); fill-rule: nonzero; opacity: 1;" transform=" matrix(1 0 0 1 0 0) " stroke-linecap="round" />
</g>
</svg>