<svg xmlns="http://www.w3.org/2000/svg" xmlns:xlink="http://www.w3.org/1999/xlink" version="1.1" width="256" height="256" viewBox="0 0 256 256" xml:space="preserve">

<defs>
</defs>
<g style="stroke: none; stroke-width: 0; stroke-dasharray: none; stroke-linecap: butt; stroke-linejoin: miter; stroke-miterlimit: 10; fill: none; fill-rule: nonzero; opacity: 1;" transform="translate(1.4065934065934016 1.4065934065934016) scale(2.81 2.81)" >
	<circle cx="39.546" cy="44.996" r="38.546" style="stroke: none; stroke-width: 1; stroke-dasharray: none; stroke-linecap: butt; stroke-linejoin: miter; stroke-miterlimit: 10; fill: rgb(238,187,80); fill-rule: nonzero; opacity: 1;" transform="  matrix(1 0 0 1 0 0) "/>
	<path d="M 39.546 84.546 C 17.74 84.546 0 66.806 0 45 S 17.74 5.454 39.546 5.454 S 79.092 23.194 79.092 45 S 61.352 84.546 39.546 84.546 z M 39.546 7.454 C 18.843 7.454 2 24.297 2 45 s 16.843 37.546 37.546 37.546 S 77.092 65.703 77.092 45 S 60.249 7.454 39.546 7.454 z" style="stroke: none; stroke-width: 1; stroke-dasharray: none; stroke-linecap: butt; stroke-linejoin: miter; stroke-miterlimit: 10; fill: rgb(0,0,0); fill-rule: nonzero; opacity: 1;" transform=" matrix(1 0 0 1 0 0) " stroke-linecap="round" />
	<path d="M 43.155 41.972 l -4.524 -1.657 c -0.084 -0.031 -0.169 -0.058 -0.254 -0.084 c -1.587 -0.466 -2.828 -1.615 -3.405 -3.151 c -0.488 -1.301 -0.44 -2.714 0.135 -3.979 c 0.575 -1.265 1.608 -2.23 2.909 -2.718 c 1.3 -0.488 2.714 -0.44 3.978 0.135 c 1.265 0.575 2.23 1.608 2.718 2.909 c 0.792 2.112 3.146 3.181 5.258 2.39 c 2.112 -0.792 3.182 -3.146 2.39 -5.258 c -1.528 -4.075 -4.85 -6.953 -8.731 -8.107 v -1.664 c 0 -2.256 -1.829 -4.084 -4.084 -4.084 c -2.256 0 -4.084 1.829 -4.084 4.084 v 1.846 c -0.104 0.036 -0.21 0.061 -0.313 0.1 c -6.903 2.589 -10.413 10.311 -7.824 17.214 c 1.47 3.919 4.604 6.857 8.613 8.08 l 4.524 1.657 c 0.084 0.031 0.168 0.058 0.254 0.084 c 1.588 0.466 2.829 1.615 3.405 3.152 c 0.487 1.3 0.44 2.713 -0.135 3.978 c -0.575 1.265 -1.608 2.23 -2.909 2.718 c -1.301 0.488 -2.714 0.441 -3.979 -0.135 c -1.265 -0.574 -2.23 -1.608 -2.718 -2.909 c -0.792 -2.112 -3.147 -3.18 -5.258 -2.391 c -2.112 0.792 -3.182 3.147 -2.39 5.259 c 1.254 3.344 3.735 6 6.986 7.477 c 0.57 0.259 1.155 0.461 1.746 0.637 v 1.656 c 0 2.256 1.829 4.084 4.084 4.084 c 2.256 0 4.084 -1.829 4.084 -4.084 v -1.844 c 0.104 -0.036 0.21 -0.063 0.313 -0.102 c 3.344 -1.254 6 -3.735 7.478 -6.986 c 1.478 -3.251 1.601 -6.883 0.347 -10.227 C 50.299 46.133 47.164 43.195 43.155 41.972 z" style="stroke: none; stroke-width: 1; stroke-dasharray: none; stroke-linecap: butt; stroke-linejoin: miter; stroke-miterlimit: 10; fill: rgb(68,196,161); fill-rule: nonzero; opacity: 1;" transform=" matrix(1 0 0 1 0 0) " stroke-linecap="round" />
	<path d="M 39.546 74.295 c -2.804 0 -5.084 -2.28 -5.084 -5.084 v -0.926 c -0.423 -0.145 -0.802 -0.294 -1.16 -0.457 c -3.494 -1.588 -6.16 -4.442 -7.508 -8.037 c -0.984 -2.624 0.351 -5.561 2.975 -6.546 c 2.626 -0.979 5.563 0.352 6.546 2.977 c 0.394 1.051 1.174 1.886 2.195 2.35 c 1.023 0.465 2.165 0.504 3.214 0.108 c 1.051 -0.394 1.886 -1.173 2.351 -2.195 c 0.464 -1.021 0.503 -2.162 0.109 -3.213 c -0.465 -1.239 -1.467 -2.167 -2.75 -2.543 c -0.11 -0.033 -0.216 -0.067 -0.321 -0.106 l -4.519 -1.655 c -4.253 -1.295 -7.627 -4.46 -9.205 -8.667 c -2.74 -7.307 0.878 -15.467 8.074 -18.37 v -1.141 c 0 -2.804 2.281 -5.084 5.084 -5.084 s 5.084 2.281 5.084 5.084 v 0.938 c 4.03 1.421 7.166 4.478 8.667 8.482 c 0.984 2.625 -0.351 5.561 -2.975 6.546 c -2.631 0.985 -5.563 -0.353 -6.547 -2.976 c -0.394 -1.051 -1.173 -1.885 -2.196 -2.35 c -1.021 -0.463 -2.162 -0.504 -3.213 -0.109 c -1.051 0.394 -1.885 1.174 -2.35 2.196 c -0.464 1.022 -0.503 2.163 -0.109 3.214 c 0.465 1.24 1.467 2.167 2.75 2.543 c 0.107 0.032 0.21 0.065 0.312 0.102 l 4.503 1.65 c 4.294 1.319 7.657 4.48 9.23 8.678 c 1.349 3.592 1.216 7.495 -0.373 10.991 c -1.539 3.384 -4.265 5.992 -7.701 7.378 v 1.14 C 44.63 72.015 42.35 74.295 39.546 74.295 z M 30.55 54.922 c -0.359 0 -0.724 0.063 -1.079 0.196 c -1.591 0.598 -2.401 2.379 -1.804 3.971 c 1.16 3.095 3.455 5.552 6.463 6.919 c 0.464 0.211 0.978 0.397 1.617 0.589 c 0.424 0.126 0.715 0.516 0.715 0.958 v 1.656 c 0 1.7 1.384 3.084 3.084 3.084 s 3.084 -1.384 3.084 -3.084 v -1.844 c 0 -0.425 0.269 -0.804 0.67 -0.944 l 0.295 -0.095 c 3.089 -1.16 5.546 -3.455 6.915 -6.463 c 1.367 -3.009 1.481 -6.369 0.32 -9.461 c -1.356 -3.62 -4.26 -6.344 -7.968 -7.476 c -0.018 -0.005 -0.035 -0.011 -0.052 -0.018 l -4.524 -1.657 c -0.062 -0.022 -0.128 -0.044 -0.195 -0.064 c -1.888 -0.554 -3.368 -1.924 -4.056 -3.758 c -0.582 -1.551 -0.524 -3.236 0.161 -4.744 c 0.686 -1.508 1.917 -2.659 3.468 -3.241 c 1.551 -0.583 3.235 -0.525 4.744 0.161 c 1.508 0.686 2.659 1.917 3.241 3.468 c 0.596 1.592 2.379 2.401 3.972 1.805 c 1.592 -0.597 2.401 -2.378 1.804 -3.971 c -1.367 -3.646 -4.313 -6.379 -8.079 -7.499 c -0.424 -0.126 -0.715 -0.516 -0.715 -0.958 v -1.664 c 0 -1.701 -1.384 -3.084 -3.084 -3.084 s -3.084 1.384 -3.084 3.084 v 1.846 c 0 0.426 -0.27 0.805 -0.672 0.945 l -0.29 0.091 c -6.387 2.395 -9.634 9.54 -7.239 15.926 c 1.357 3.62 4.262 6.344 7.968 7.473 l 4.576 1.675 c 0.067 0.025 0.13 0.046 0.194 0.064 c 1.89 0.555 3.37 1.926 4.058 3.761 c 0.581 1.55 0.524 3.234 -0.161 4.742 c -0.686 1.509 -1.918 2.659 -3.469 3.24 s -3.236 0.523 -4.743 -0.161 c -1.508 -0.685 -2.659 -1.916 -3.241 -3.468 C 32.979 55.687 31.799 54.922 30.55 54.922 z" style="stroke: none; stroke-width: 1; stroke-dasharray: none; stroke-linecap: butt; stroke-linejoin: miter; stroke-miterlimit: 10; fill: rgb(0,0,0); fill-rule: nonzero; opacity: 1;" transform=" matrix(1 0 0 1 0 0) " stroke-linecap="round" />
	<path d="M 87.025 64.741 H 62.559 c -1.091 0 -1.975 -0.884 -1.975 -1.975 V 27.234 c 0 -1.091 0.884 -1.975 1.975 -1.975 h 24.466 c 1.091 0 1.975 0.884 1.975 1.975 v 35.532 C 89 63.856 88.116 64.741 87.025 64.741 z" style="stroke: none; stroke-width: 1; stroke-dasharray: none; stroke-linecap: butt; stroke-linejoin: miter; stroke-miterlimit: 10; fill: rgb(68,196,161); fill-rule: nonzero; opacity: 1;" transform=" matrix(1 0 0 1 0 0) " stroke-linecap="round" />
	<rect x="65.97" y="41.71" rx="0" ry="0" width="6.58" height="6.58" style="stroke: none; stroke-width: 1; stroke-dasharray: none; stroke-linecap: butt; stroke-linejoin: miter; stroke-miterlimit: 10; fill: rgb(55,157,129); fill-rule: nonzero; opacity: 1;" transform=" matrix(1 0 0 1 0 0) "/>
	<rect x="77.03" y="41.71" rx="0" ry="0" width="6.58" height="6.58" style="stroke: none; stroke-width: 1; stroke-dasharray: none; stroke-linecap: butt; stroke-linejoin: miter; stroke-miterlimit: 10; fill: rgb(55,157,129); fill-rule: nonzero; opacity: 1;" transform=" matrix(1 0 0 1 0 0) "/>
	<rect x="65.97" y="52.77" rx="0" ry="0" width="6.58" height="6.58" style="stroke: none; stroke-width: 1; stroke-dasharray: none; stroke-linecap: butt; stroke-linejoin: miter; stroke-miterlimit: 10; fill: rgb(55,157,129); fill-rule: nonzero; opacity: 1;" transform=" matrix(1 0 0 1 0 0) "/>
	<rect x="77.03" y="52.77" rx="0" ry="0" width="6.58" height="6.58" style="stroke: none; stroke-width: 1; stroke-dasharray: none; stroke-linecap: butt; stroke-linejoin: miter; stroke-miterlimit: 10; fill: rgb(55,157,129); fill-rule: nonzero; opacity: 1;" transform=" matrix(1 0 0 1 0 0) "/>
	<rect x="65.97" y="30.64" rx="0" ry="0" width="17.65" height="6.58" style="stroke: none; stroke-width: 1; stroke-dasharray: none; stroke-linecap: butt; stroke-linejoin: miter; stroke-miterlimit: 10; fill: rgb(231,236,246); fill-rule: nonzero; opacity: 1;" transform=" matrix(1 0 0 1 0 0) "/>
	<path d="M 87.025 65.74 H 62.559 c -1.641 0 -2.975 -1.334 -2.975 -2.975 V 27.234 c 0 -1.64 1.334 -2.975 2.975 -2.975 h 24.467 c 1.641 0 2.975 1.334 2.975 2.975 v 35.532 C 90 64.406 88.666 65.74 87.025 65.74 z M 62.559 26.259 c -0.537 0 -0.975 0.437 -0.975 0.975 v 35.532 c 0 0.537 0.438 0.975 0.975 0.975 h 24.467 c 0.537 0 0.975 -0.438 0.975 -0.975 V 27.234 c 0 -0.538 -0.438 -0.975 -0.975 -0.975 H 62.559 z" style="stroke: none; stroke-width: 1; stroke-dasharray: none; stroke-linecap: butt; stroke-linejoin: miter; stroke-miterlimit: 10; fill: rgb(0,0,0); fill-rule: nonzero; opacity: 1;" transform=" matrix(1 0 0 1 0 0) " stroke-linecap="round" />
	<path d="M 72.552 49.292 h -6.584 c -0.553 0 -1 -0.447 -1 -1 v -6.584 c 0 -0.552 0.447 -1 1 -1 h 6.584 c 0.553 0 1 0.448 1 1 v 6.584 C 73.552 48.845 73.104 49.292 72.552 49.292 z M 66.968 47.292 h 4.584 v -4.584 h -4.584 V 47.292 z" style="stroke: none; stroke-width: 1; stroke-dasharray: none; stroke-linecap: butt; stroke-linejoin: miter; stroke-miterlimit: 10; fill: rgb(0,0,0); fill-rule: nonzero; opacity: 1;" transform=" matrix(1 0 0 1 0 0) " stroke-linecap="round" />
	<path d="M 83.617 49.292 h -6.584 c -0.553 0 -1 -0.447 -1 -1 v -6.584 c 0 -0.552 0.447 -1 1 -1 h 6.584 c 0.553 0 1 0.448 1 1 v 6.584 C 84.617 48.845 84.17 49.292 83.617 49.292 z M 78.033 47.292 h 4.584 v -4.584 h -4.584 V 47.292 z" style="stroke: none; stroke-width: 1; stroke-dasharray: none; stroke-linecap: butt; stroke-linejoin: miter; stroke-miterlimit: 10; fill: rgb(0,0,0); fill-rule: nonzero; opacity: 1;" transform=" matrix(1 0 0 1 0 0) " stroke-linecap="round" />
	<path d="M 72.552 60.357 h -6.584 c -0.553 0 -1 -0.447 -1 -1 v -6.584 c 0 -0.553 0.447 -1 1 -1 h 6.584 c 0.553 0 1 0.447 1 1 v 6.584 C 73.552 59.91 73.104 60.357 72.552 60.357 z M 66.968 58.357 h 4.584 v -4.584 h -4.584 V 58.357 z" style="stroke: none; stroke-width: 1; stroke-dasharray: none; stroke-linecap: butt; stroke-linejoin: miter; stroke-miterlimit: 10; fill: rgb(0,0,0); fill-rule: nonzero; opacity: 1;" transform=" matrix(1 0 0 1 0 0) " stroke-linecap="round" />
	<path d="M 83.617 60.357 h -6.584 c -0.553 0 -1 -0.447 -1 -1 v -6.584 c 0 -0.553 0.447 -1 1 -1 h 6.584 c 0.553 0 1 0.447 1 1 v 6.584 C 84.617 59.91 84.17 60.357 83.617 60.357 z M 78.033 58.357 h 4.584 v -4.584 h -4.584 V 58.357 z" style="stroke: none; stroke-width: 1; stroke-dasharray: none; stroke-linecap: butt; stroke-linejoin: miter; stroke-miterlimit: 10; fill: rgb(0,0,0); fill-rule: nonzero; opacity: 1;" transform=" matrix(1 0 0 1 0 0) " stroke-linecap="round" />
	<path d="M 83.617 38.227 H 65.968 c -0.553 0 -1 -0.448 -1 -1 v -6.584 c 0 -0.552 0.447 -1 1 -1 h 17.649 c 0.553 0 1 0.448 1 1 v 6.584 C 84.617 37.779 84.17 38.227 83.617 38.227 z M 66.968 36.227 h 15.649 v -4.584 H 66.968 V 36.227 z" style="stroke: none; stroke-width: 1; stroke-dasharray: none; stroke-linecap: butt; stroke-linejoin: miter; stroke-miterlimit: 10; fill: rgb(0,0,0); fill-rule: nonzero; opacity: 1;" transform=" matrix(1 0 0 1 0 0) " stroke-linecap="round" />
</g>
</svg>