<svg xmlns="http://www.w3.org/2000/svg" xmlns:xlink="http://www.w3.org/1999/xlink" version="1.1" width="256" height="256" viewBox="0 0 256 256" xml:space="preserve">

<defs>
</defs>
<g style="stroke: none; stroke-width: 0; stroke-dasharray: none; stroke-linecap: butt; stroke-linejoin: miter; stroke-miterlimit: 10; fill: none; fill-rule: nonzero; opacity: 1;" transform="translate(1.4065934065934016 1.4065934065934016) scale(2.81 2.81)" >
	<path d="M 79.615 90 h -69.23 c -0.552 0 -1 -0.447 -1 -1 V 5.021 C 9.385 2.252 11.638 0 14.406 0 h 61.188 c 2.769 0 5.021 2.252 5.021 5.021 V 89 C 80.615 89.553 80.168 90 79.615 90 z M 11.385 88 h 67.23 V 5.021 C 78.615 3.355 77.26 2 75.594 2 H 14.406 c -1.666 0 -3.021 1.355 -3.021 3.021 V 88 z" style="stroke: none; stroke-width: 1; stroke-dasharray: none; stroke-linecap: butt; stroke-linejoin: miter; stroke-miterlimit: 10; fill: rgb(0,0,0); fill-rule: nonzero; opacity: 1;" transform=" matrix(1 0 0 1 0 0) " stroke-linecap="round" />
	<path d="M 31.815 43.087 H 17.042 c -0.552 0 -1 -0.448 -1 -1 V 27.314 c 0 -0.552 0.448 -1 1 -1 h 14.774 c 0.552 0 1 0.448 1 1 v 14.773 C 32.815 42.64 32.368 43.087 31.815 43.087 z M 18.042 41.087 h 12.774 V 28.314 H 18.042 V 41.087 z" style="stroke: none; stroke-width: 1; stroke-dasharray: none; stroke-linecap: butt; stroke-linejoin: miter; stroke-miterlimit: 10; fill: rgb(0,0,0); fill-rule: nonzero; opacity: 1;" transform=" matrix(1 0 0 1 0 0) " stroke-linecap="round" />
	<path d="M 52.387 43.087 H 37.613 c -0.552 0 -1 -0.448 -1 -1 V 27.314 c 0 -0.552 0.448 -1 1 -1 h 14.773 c 0.553 0 1 0.448 1 1 v 14.773 C 53.387 42.64 52.939 43.087 52.387 43.087 z M 38.613 41.087 h 12.773 V 28.314 H 38.613 V 41.087 z" style="stroke: none; stroke-width: 1; stroke-dasharray: none; stroke-linecap: butt; stroke-linejoin: miter; stroke-miterlimit: 10; fill: rgb(0,0,0); fill-rule: nonzero; opacity: 1;" transform=" matrix(1 0 0 1 0 0) " stroke-linecap="round" />
	<path d="M 72.958 43.087 H 58.185 c -0.553 0 -1 -0.448 -1 -1 V 27.314 c 0 -0.552 0.447 -1 1 -1 h 14.773 c 0.553 0 1 0.448 1 1 v 14.773 C 73.958 42.64 73.511 43.087 72.958 43.087 z M 59.185 41.087 h 12.773 V 28.314 H 59.185 V 41.087 z" style="stroke: none; stroke-width: 1; stroke-dasharray: none; stroke-linecap: butt; stroke-linejoin: miter; stroke-miterlimit: 10; fill: rgb(0,0,0); fill-rule: nonzero; opacity: 1;" transform=" matrix(1 0 0 1 0 0) " stroke-linecap="round" />
	<path d="M 31.815 63.687 H 17.042 c -0.552 0 -1 -0.447 -1 -1 V 47.912 c 0 -0.553 0.448 -1 1 -1 h 14.774 c 0.552 0 1 0.447 1 1 v 14.774 C 32.815 63.239 32.368 63.687 31.815 63.687 z M 18.042 61.687 h 12.774 V 48.912 H 18.042 V 61.687 z" style="stroke: none; stroke-width: 1; stroke-dasharray: none; stroke-linecap: butt; stroke-linejoin: miter; stroke-miterlimit: 10; fill: rgb(0,0,0); fill-rule: nonzero; opacity: 1;" transform=" matrix(1 0 0 1 0 0) " stroke-linecap="round" />
	<path d="M 52.387 63.687 H 37.613 c -0.552 0 -1 -0.447 -1 -1 V 47.912 c 0 -0.553 0.448 -1 1 -1 h 14.773 c 0.553 0 1 0.447 1 1 v 14.774 C 53.387 63.239 52.939 63.687 52.387 63.687 z M 38.613 61.687 h 12.773 V 48.912 H 38.613 V 61.687 z" style="stroke: none; stroke-width: 1; stroke-dasharray: none; stroke-linecap: butt; stroke-linejoin: miter; stroke-miterlimit: 10; fill: rgb(0,0,0); fill-rule: nonzero; opacity: 1;" transform=" matrix(1 0 0 1 0 0) " stroke-linecap="round" />
	<path d="M 31.815 84.285 H 17.042 c -0.552 0 -1 -0.447 -1 -1 V 68.511 c 0 -0.553 0.448 -1 1 -1 h 14.774 c 0.552 0 1 0.447 1 1 v 14.774 C 32.815 83.838 32.368 84.285 31.815 84.285 z M 18.042 82.285 h 12.774 V 69.511 H 18.042 V 82.285 z" style="stroke: none; stroke-width: 1; stroke-dasharray: none; stroke-linecap: butt; stroke-linejoin: miter; stroke-miterlimit: 10; fill: rgb(0,0,0); fill-rule: nonzero; opacity: 1;" transform=" matrix(1 0 0 1 0 0) " stroke-linecap="round" />
	<path d="M 52.387 84.285 H 37.613 c -0.552 0 -1 -0.447 -1 -1 V 68.511 c 0 -0.553 0.448 -1 1 -1 h 14.773 c 0.553 0 1 0.447 1 1 v 14.774 C 53.387 83.838 52.939 84.285 52.387 84.285 z M 38.613 82.285 h 12.773 V 69.511 H 38.613 V 82.285 z" style="stroke: none; stroke-width: 1; stroke-dasharray: none; stroke-linecap: butt; stroke-linejoin: miter; stroke-miterlimit: 10; fill: rgb(0,0,0); fill-rule: nonzero; opacity: 1;" transform=" matrix(1 0 0 1 0 0) " stroke-linecap="round" />
	<path d="M 72.958 84.285 H 58.185 c -0.553 0 -1 -0.447 -1 -1 V 47.912 c 0 -0.553 0.447 -1 1 -1 h 14.773 c 0.553 0 1 0.447 1 1 v 35.373 C 73.958 83.838 73.511 84.285 72.958 84.285 z M 59.185 82.285 h 12.773 V 48.912 H 59.185 V 82.285 z" style="stroke: none; stroke-width: 1; stroke-dasharray: none; stroke-linecap: butt; stroke-linejoin: miter; stroke-miterlimit: 10; fill: rgb(0,0,0); fill-rule: nonzero; opacity: 1;" transform=" matrix(1 0 0 1 0 0) " stroke-linecap="round" />
	<path d="M 72.958 22.489 H 17.042 c -0.552 0 -1 -0.448 -1 -1 V 10.736 c 0 -2.769 2.252 -5.021 5.021 -5.021 h 47.875 c 2.769 0 5.021 2.252 5.021 5.021 v 10.753 C 73.958 22.042 73.511 22.489 72.958 22.489 z M 18.042 20.489 h 53.917 v -9.753 c 0 -1.666 -1.355 -3.021 -3.021 -3.021 H 21.063 c -1.666 0 -3.021 1.355 -3.021 3.021 V 20.489 z" style="stroke: none; stroke-width: 1; stroke-dasharray: none; stroke-linecap: butt; stroke-linejoin: miter; stroke-miterlimit: 10; fill: rgb(0,0,0); fill-rule: nonzero; opacity: 1;" transform=" matrix(1 0 0 1 0 0) " stroke-linecap="round" />
</g>
</svg>