<svg xmlns="http://www.w3.org/2000/svg" xmlns:xlink="http://www.w3.org/1999/xlink" version="1.1" width="256" height="256" viewBox="0 0 256 256" xml:space="preserve">

<defs>
</defs>
<g style="stroke: none; stroke-width: 0; stroke-dasharray: none; stroke-linecap: butt; stroke-linejoin: miter; stroke-miterlimit: 10; fill: none; fill-rule: nonzero; opacity: 1;" transform="translate(1.4065934065934016 1.4065934065934016) scale(2.81 2.81)" >
	<path d="M 20.153 17.708 l -1.723 -0.629 c -0.709 -0.208 -1.264 -0.722 -1.522 -1.41 c -0.218 -0.582 -0.197 -1.213 0.06 -1.779 s 0.719 -0.997 1.3 -1.215 c 0.581 -0.219 1.212 -0.198 1.779 0.06 c 0.566 0.257 0.998 0.719 1.215 1.301 c 0.194 0.518 0.771 0.778 1.288 0.585 c 0.517 -0.194 0.779 -0.771 0.585 -1.288 c -0.406 -1.082 -1.208 -1.941 -2.261 -2.419 c -0.291 -0.132 -0.591 -0.223 -0.896 -0.288 V 9.673 c 0 -0.552 -0.448 -1 -1 -1 c -0.552 0 -1 0.448 -1 1 v 1.02 c -0.138 0.037 -0.277 0.06 -0.413 0.11 c -2.233 0.838 -3.369 3.336 -2.531 5.569 c 0.48 1.282 1.513 2.24 2.77 2.606 l 1.723 0.629 c 0.709 0.208 1.264 0.722 1.522 1.41 c 0.451 1.201 -0.16 2.544 -1.361 2.994 c -1.202 0.451 -2.543 -0.16 -2.994 -1.361 c -0.194 -0.517 -0.771 -0.777 -1.288 -0.585 c -0.517 0.194 -0.779 0.771 -0.585 1.288 c 0.538 1.433 1.761 2.403 3.157 2.701 v 0.961 c 0 0.552 0.448 1 1 1 c 0.552 0 1 -0.448 1 -1 v -1.017 c 0.138 -0.037 0.276 -0.062 0.412 -0.113 c 1.082 -0.406 1.941 -1.208 2.419 -2.261 c 0.478 -1.052 0.518 -2.227 0.112 -3.309 C 22.442 19.032 21.41 18.075 20.153 17.708 z" style="stroke: none; stroke-width: 1; stroke-dasharray: none; stroke-linecap: butt; stroke-linejoin: miter; stroke-miterlimit: 10; fill: rgb(0,0,0); fill-rule: nonzero; opacity: 1;" transform=" matrix(1 0 0 1 0 0) " stroke-linecap="round" />
	<path d="M 63.65 49.281 H 37.725 c -0.552 0 -1 -0.447 -1 -1 s 0.448 -1 1 -1 H 63.65 c 0.553 0 1 0.447 1 1 S 64.203 49.281 63.65 49.281 z" style="stroke: none; stroke-width: 1; stroke-dasharray: none; stroke-linecap: butt; stroke-linejoin: miter; stroke-miterlimit: 10; fill: rgb(0,0,0); fill-rule: nonzero; opacity: 1;" transform=" matrix(1 0 0 1 0 0) " stroke-linecap="round" />
	<path d="M 59.662 43.931 h -17.95 c -0.552 0 -1 -0.448 -1 -1 s 0.448 -1 1 -1 h 17.95 c 0.553 0 1 0.448 1 1 S 60.215 43.931 59.662 43.931 z" style="stroke: none; stroke-width: 1; stroke-dasharray: none; stroke-linecap: butt; stroke-linejoin: miter; stroke-miterlimit: 10; fill: rgb(0,0,0); fill-rule: nonzero; opacity: 1;" transform=" matrix(1 0 0 1 0 0) " stroke-linecap="round" />
	<path d="M 27.697 48.48 c -0.758 0 -1.505 -0.167 -2.197 -0.522 c -1.371 -0.702 -2.315 -2.006 -2.659 -3.671 c -0.327 -1.584 -0.064 -3.32 0.738 -4.887 s 2.058 -2.793 3.534 -3.455 c 1.551 -0.693 3.162 -0.69 4.533 0.013 c 2.753 1.411 3.615 5.25 1.921 8.559 l 0 0 C 32.299 46.993 29.952 48.48 27.697 48.48 z M 29.432 37.431 c -0.486 0 -0.995 0.113 -1.501 0.34 c -1.062 0.476 -1.975 1.378 -2.571 2.541 s -0.794 2.431 -0.56 3.571 c 0.218 1.06 0.791 1.875 1.612 2.295 c 1.77 0.906 4.183 -0.247 5.375 -2.574 c 1.192 -2.327 0.72 -4.958 -1.053 -5.866 C 30.335 37.533 29.894 37.431 29.432 37.431 z M 32.678 44.061 h 0.01 H 32.678 z" style="stroke: none; stroke-width: 1; stroke-dasharray: none; stroke-linecap: butt; stroke-linejoin: miter; stroke-miterlimit: 10; fill: rgb(0,0,0); fill-rule: nonzero; opacity: 1;" transform=" matrix(1 0 0 1 0 0) " stroke-linecap="round" />
	<path d="M 73.662 48.488 c -0.764 0 -1.549 -0.172 -2.32 -0.518 c -1.477 -0.66 -2.732 -1.888 -3.534 -3.454 c -1.694 -3.309 -0.833 -7.148 1.92 -8.559 c 1.373 -0.703 2.98 -0.707 4.533 -0.013 c 1.477 0.661 2.732 1.888 3.534 3.455 c 1.694 3.309 0.833 7.148 -1.92 8.558 C 75.184 48.312 74.434 48.488 73.662 48.488 z M 71.942 37.431 c -0.462 0 -0.903 0.102 -1.303 0.307 c -1.772 0.908 -2.244 3.54 -1.053 5.866 c 0.596 1.163 1.509 2.065 2.571 2.541 c 0.987 0.442 1.983 0.451 2.805 0.033 c 1.772 -0.908 2.244 -3.54 1.053 -5.867 c -0.596 -1.163 -1.509 -2.065 -2.571 -2.541 C 72.937 37.544 72.429 37.431 71.942 37.431 z" style="stroke: none; stroke-width: 1; stroke-dasharray: none; stroke-linecap: butt; stroke-linejoin: miter; stroke-miterlimit: 10; fill: rgb(0,0,0); fill-rule: nonzero; opacity: 1;" transform=" matrix(1 0 0 1 0 0) " stroke-linecap="round" />
	<path d="M 89.768 65.555 c -0.775 -2.537 -3.332 -4.101 -5.937 -3.636 c -0.403 0.072 -0.828 0.166 -1.24 0.247 c 0.034 -0.184 0.057 -0.372 0.057 -0.566 v -9.154 c 0.184 -0.589 0.307 -1.205 0.343 -1.848 l 0.379 -6.861 c 0.26 -4.693 -1.461 -9.327 -4.722 -12.714 l -3.375 -3.503 l -4.072 -10.177 c -0.749 -1.867 -2.437 -3.171 -4.408 -3.404 c -10.686 -1.264 -21.524 -1.264 -32.211 0 c -1.971 0.233 -3.66 1.538 -4.408 3.405 L 26.101 27.52 l -3.374 3.503 c -3.261 3.386 -4.982 8.02 -4.723 12.714 l 0.379 6.862 c 0.03 0.551 0.508 0.974 1.054 0.942 c 0.551 -0.03 0.974 -0.502 0.943 -1.054 l -0.379 -6.861 c -0.229 -4.141 1.29 -8.229 4.166 -11.216 l 3.234 -3.358 c 15.454 -0.807 31.118 -0.807 46.572 0 l 3.234 3.358 c 2.877 2.987 4.395 7.075 4.167 11.216 l -0.379 6.861 c -0.164 2.959 -2.614 5.277 -5.577 5.277 H 62.221 c -0.553 0 -1 0.447 -1 1 s 0.447 1 1 1 h 5.099 v 3.835 c 0 1.698 1.381 3.079 3.079 3.079 h 1.66 c -0.414 0.109 -0.818 0.213 -1.237 0.323 c -2.416 0.635 -4.899 1.285 -7.361 1.877 c -0.887 -4.06 -4.431 -7.098 -8.679 -7.241 l -1.914 -0.064 c -2.956 0 -6.166 -1.138 -9.269 -2.238 c -3.084 -1.094 -6.273 -2.225 -9.232 -2.225 c -4.427 0 -9.764 0.71 -15.786 5.972 c -0.496 0.433 -1.074 0.677 -1.724 0.666 l -1.331 -0.061 v -3.435 c 0 -0.553 -0.448 -1 -1 -1 H 1 c -0.552 0 -1 0.447 -1 1 v 26.95 c 0 0.553 0.448 1 1 1 h 13.527 c 0.552 0 1 -0.447 1 -1 v -3.94 h 4.814 c 1.613 0 3.228 0.178 4.798 0.527 l 14.401 3.212 c 1.29 0.288 2.61 0.434 3.931 0.434 c 0.087 0 0.175 -0.001 0.263 -0.002 l 7.97 -0.116 c 2.377 -0.034 4.688 -0.528 6.866 -1.465 l 28.247 -11.93 C 89.287 70.861 90.554 68.123 89.768 65.555 z M 28.463 27.002 l 3.568 -8.915 c 0.475 -1.187 1.542 -2.015 2.786 -2.162 c 10.531 -1.245 21.211 -1.245 31.742 0 c 1.243 0.146 2.311 0.975 2.785 2.162 l 3.568 8.915 C 58.155 26.27 43.22 26.27 28.463 27.002 z M 69.319 61.599 v -3.835 h 6.099 c 2.022 0 3.866 -0.795 5.23 -2.095 v 5.93 c 0 0.595 -0.484 1.079 -1.079 1.079 h -9.171 C 69.804 62.679 69.319 62.194 69.319 61.599 z M 13.528 84.202 H 2 v -24.95 h 11.527 V 84.202 z M 86.035 70.082 l -28.248 11.93 c -1.941 0.835 -3.998 1.274 -6.111 1.305 l -7.97 0.116 c -1.253 0.014 -2.507 -0.111 -3.729 -0.383 l -14.401 -3.212 c -1.713 -0.383 -3.474 -0.576 -5.233 -0.576 h -4.814 V 63.689 l 1.278 0.058 c 0.01 0 0.02 0 0.03 0 c 1.119 0 2.206 -0.411 3.062 -1.159 c 5.523 -4.827 10.414 -5.478 14.47 -5.478 c 2.615 0 5.504 1.024 8.563 2.109 c 3.263 1.157 6.635 2.354 9.901 2.353 c 0.001 0 0.002 0 0.002 0 l 1.88 0.063 c 3.336 0.113 6.118 2.505 6.801 5.697 c -8.467 1.918 -16.393 2.852 -20.052 -0.504 c -0.407 -0.373 -1.04 -0.346 -1.413 0.062 c -0.374 0.407 -0.346 1.039 0.061 1.413 c 5.799 5.32 18.723 1.92 31.22 -1.367 c 4.603 -1.211 8.952 -2.354 12.85 -3.049 c 1.618 -0.287 3.195 0.68 3.676 2.252 C 88.343 67.731 87.557 69.427 86.035 70.082 z" style="stroke: none; stroke-width: 1; stroke-dasharray: none; stroke-linecap: butt; stroke-linejoin: miter; stroke-miterlimit: 10; fill: rgb(0,0,0); fill-rule: nonzero; opacity: 1;" transform=" matrix(1 0 0 1 0 0) " stroke-linecap="round" />
	<path d="M 14.527 32.139 c -0.109 0 -0.22 -0.018 -0.329 -0.056 c -5.84 -2.032 -9.764 -7.554 -9.764 -13.74 c 0 -8.02 6.525 -14.545 14.545 -14.545 c 3.885 0 7.538 1.513 10.285 4.26 c 0.391 0.391 0.391 1.023 0 1.414 c -0.391 0.391 -1.023 0.391 -1.414 0 c -2.37 -2.37 -5.52 -3.674 -8.871 -3.674 c -6.917 0 -12.545 5.627 -12.545 12.545 c 0 5.336 3.384 10.099 8.421 11.851 c 0.521 0.181 0.797 0.751 0.616 1.273 C 15.327 31.88 14.94 32.139 14.527 32.139 z" style="stroke: none; stroke-width: 1; stroke-dasharray: none; stroke-linecap: butt; stroke-linejoin: miter; stroke-miterlimit: 10; fill: rgb(0,0,0); fill-rule: nonzero; opacity: 1;" transform=" matrix(1 0 0 1 0 0) " stroke-linecap="round" />
</g>
</svg>