<svg xmlns="http://www.w3.org/2000/svg" xmlns:xlink="http://www.w3.org/1999/xlink" version="1.1" width="256" height="256" viewBox="0 0 256 256" xml:space="preserve">

<defs>
</defs>
<g style="stroke: none; stroke-width: 0; stroke-dasharray: none; stroke-linecap: butt; stroke-linejoin: miter; stroke-miterlimit: 10; fill: none; fill-rule: nonzero; opacity: 1;" transform="translate(1.4065934065934016 1.4065934065934016) scale(2.81 2.81)" >
	<path d="M 77.358 67.646 c -0.687 -2.245 -2.947 -3.636 -5.258 -3.219 c -3.423 0.609 -7.192 1.601 -11.184 2.65 c -2.028 0.533 -4.11 1.078 -6.178 1.577 c -0.826 -3.478 -3.891 -6.065 -7.553 -6.189 l -1.649 -0.056 c -2.514 0 -5.258 -0.973 -7.912 -1.914 c -2.659 -0.942 -5.409 -1.918 -7.974 -1.918 c -3.828 0 -8.442 0.613 -13.648 5.163 c -0.397 0.347 -0.898 0.537 -1.373 0.537 c -0.003 0 -0.006 0 -0.008 0 l -1.007 -0.046 v -2.815 c 0 -0.553 -0.448 -1 -1 -1 H 1 c -0.552 0 -1 0.447 -1 1 v 23.142 c 0 0.553 0.448 1 1 1 h 11.616 c 0.552 0 1 -0.447 1 -1 v -3.242 h 3.993 c 1.373 0 2.749 0.151 4.089 0.45 l 12.366 2.757 c 1.117 0.25 2.262 0.376 3.408 0.376 c 0.075 0 0.151 -0.001 0.227 -0.002 l 6.843 -0.1 c 2.059 -0.029 4.063 -0.457 5.949 -1.269 l 24.256 -10.244 C 76.933 72.346 78.055 69.921 77.358 67.646 z M 11.616 83.559 H 2 V 62.417 h 9.616 V 83.559 z M 73.963 71.445 L 49.707 81.689 c -1.651 0.71 -3.399 1.083 -5.195 1.108 l -6.844 0.1 c -1.06 0.017 -2.131 -0.094 -3.169 -0.325 l -12.366 -2.757 c -1.483 -0.331 -3.005 -0.499 -4.524 -0.499 h -3.993 V 66.234 l 0.955 0.043 c 0.009 0 0.017 0 0.026 0 c 0.995 0 1.961 -0.365 2.723 -1.03 c 4.708 -4.114 8.875 -4.669 12.332 -4.669 c 2.221 0 4.691 0.876 7.306 1.803 c 2.813 0.998 5.72 2.028 8.544 2.028 c 0 0 0.001 0 0.002 0 l 1.614 0.055 c 2.75 0.093 5.04 2.038 5.664 4.647 c -7.176 1.616 -13.867 2.389 -16.942 -0.432 c -0.407 -0.373 -1.041 -0.345 -1.413 0.062 c -0.374 0.407 -0.346 1.039 0.061 1.413 c 5.038 4.618 16.17 1.69 26.938 -1.142 c 3.951 -1.04 7.683 -2.021 11.024 -2.616 c 1.313 -0.232 2.604 0.555 2.996 1.836 C 75.844 69.529 75.203 70.912 73.963 71.445 z" style="stroke: none; stroke-width: 1; stroke-dasharray: none; stroke-linecap: butt; stroke-linejoin: miter; stroke-miterlimit: 10; fill: rgb(0,0,0); fill-rule: nonzero; opacity: 1;" transform=" matrix(1 0 0 1 0 0) " stroke-linecap="round" />
	<path d="M 62.901 35.015 c -0.553 0 -1 0.448 -1 1 v 15.006 H 9.978 V 23.707 H 43.29 c 0.552 0 1 -0.448 1 -1 s -0.448 -1 -1 -1 H 8.978 c -0.552 0 -1 0.448 -1 1 v 29.315 c 0 0.553 0.448 1 1 1 h 53.923 c 0.553 0 1 -0.447 1 -1 V 36.015 C 63.901 35.463 63.454 35.015 62.901 35.015 z" style="stroke: none; stroke-width: 1; stroke-dasharray: none; stroke-linecap: butt; stroke-linejoin: miter; stroke-miterlimit: 10; fill: rgb(0,0,0); fill-rule: nonzero; opacity: 1;" transform=" matrix(1 0 0 1 0 0) " stroke-linecap="round" />
	<path d="M 36.742 28.781 c -4.733 0 -8.583 3.85 -8.583 8.583 s 3.85 8.583 8.583 8.583 s 8.583 -3.85 8.583 -8.583 S 41.475 28.781 36.742 28.781 z M 36.742 43.947 c -3.63 0 -6.583 -2.953 -6.583 -6.583 s 2.953 -6.583 6.583 -6.583 s 6.583 2.953 6.583 6.583 S 40.372 43.947 36.742 43.947 z" style="stroke: none; stroke-width: 1; stroke-dasharray: none; stroke-linecap: butt; stroke-linejoin: miter; stroke-miterlimit: 10; fill: rgb(0,0,0); fill-rule: nonzero; opacity: 1;" transform=" matrix(1 0 0 1 0 0) " stroke-linecap="round" />
	<path d="M 53.099 45.903 c 0.553 0 1 -0.448 1 -1 s -0.447 -1 -1 -1 h -6.671 c -0.552 0 -1 0.448 -1 1 s 0.448 1 1 1 H 53.099 z" style="stroke: none; stroke-width: 1; stroke-dasharray: none; stroke-linecap: butt; stroke-linejoin: miter; stroke-miterlimit: 10; fill: rgb(0,0,0); fill-rule: nonzero; opacity: 1;" transform=" matrix(1 0 0 1 0 0) " stroke-linecap="round" />
	<path d="M 21.294 30.781 h 5.763 c 0.552 0 1 -0.448 1 -1 s -0.448 -1 -1 -1 h -6.67 c -0.552 0 -1 0.448 -1 1 c 0 1.861 -1.514 3.375 -3.375 3.375 c -0.552 0 -1 0.448 -1 1 v 6.372 c 0 0.552 0.448 1 1 1 c 1.861 0 3.375 1.514 3.375 3.375 c 0 0.552 0.448 1 1 1 h 6.67 c 0.552 0 1 -0.448 1 -1 s -0.448 -1 -1 -1 h -5.763 c -0.409 -2.163 -2.119 -3.873 -4.282 -4.282 v -4.558 C 19.176 34.654 20.885 32.944 21.294 30.781 z" style="stroke: none; stroke-width: 1; stroke-dasharray: none; stroke-linecap: butt; stroke-linejoin: miter; stroke-miterlimit: 10; fill: rgb(0,0,0); fill-rule: nonzero; opacity: 1;" transform=" matrix(1 0 0 1 0 0) " stroke-linecap="round" />
	<path d="M 89 4.441 H 77.39 c -0.553 0 -1 0.448 -1 1 v 0.912 c -2.629 -0.259 -4.931 -0.59 -7.146 -0.915 c -5.045 -0.741 -9.4 -1.382 -15.079 -0.567 c -3.645 0.523 -6.753 2.954 -8.135 6.352 l -4.009 6.529 c -0.289 0.471 -0.142 1.086 0.329 1.375 c 0.164 0.101 0.344 0.148 0.522 0.148 c 0.336 0 0.665 -0.169 0.853 -0.477 l 4.054 -6.601 c 0.03 -0.049 0.056 -0.101 0.077 -0.155 c 1.101 -2.777 3.627 -4.766 6.593 -5.192 c 5.393 -0.774 9.412 -0.183 14.504 0.566 c 2.189 0.322 4.659 0.677 7.438 0.945 v 17.284 c -4.536 0.474 -7.499 -0.451 -10.042 -3.139 c -0.188 -0.198 -0.449 -0.312 -0.723 -0.313 c -0.001 0 -0.003 0 -0.004 0 c -0.271 0 -0.532 0.111 -0.721 0.307 l -5.681 5.906 c -0.406 0.465 -0.712 0.997 -0.906 1.58 c -0.014 0.041 -0.025 0.083 -0.033 0.125 l -1.146 5.873 c -0.654 1.86 -2.581 2.923 -4.513 2.479 l -0.788 -0.182 c -1.962 -0.452 -3.258 -2.365 -2.943 -4.421 l 0.494 -5.675 c 0.061 -0.396 0.214 -0.778 0.44 -1.102 l 7.712 -10.946 c 0.318 -0.452 0.21 -1.076 -0.241 -1.394 c -0.453 -0.319 -1.076 -0.21 -1.394 0.241 l -7.714 10.95 c -0.404 0.578 -0.674 1.251 -0.788 2.013 l -0.494 5.674 c -0.466 3.02 1.501 5.923 4.479 6.609 l 0.788 0.182 c 0.447 0.103 0.895 0.153 1.335 0.152 c 2.471 0 4.726 -1.562 5.544 -4.004 c 0.014 -0.042 0.025 -0.083 0.033 -0.126 l 1.145 -5.872 c 0.111 -0.309 0.276 -0.589 0.464 -0.806 l 4.946 -5.142 c 2.79 2.56 6.116 3.485 10.75 3.039 v 0.927 c 0 0.552 0.447 1 1 1 H 89 c 0.553 0 1 -0.448 1 -1 V 5.441 C 90 4.889 89.553 4.441 89 4.441 z M 88 27.583 h -9.61 V 6.441 H 88 V 27.583 z" style="stroke: none; stroke-width: 1; stroke-dasharray: none; stroke-linecap: butt; stroke-linejoin: miter; stroke-miterlimit: 10; fill: rgb(0,0,0); fill-rule: nonzero; opacity: 1;" transform=" matrix(1 0 0 1 0 0) " stroke-linecap="round" />
</g>
</svg>