<svg xmlns="http://www.w3.org/2000/svg" xmlns:xlink="http://www.w3.org/1999/xlink" version="1.1" width="256" height="256" viewBox="0 0 256 256" xml:space="preserve">

<defs>
</defs>
<g style="stroke: none; stroke-width: 0; stroke-dasharray: none; stroke-linecap: butt; stroke-linejoin: miter; stroke-miterlimit: 10; fill: none; fill-rule: nonzero; opacity: 1;" transform="translate(1.4065934065934016 1.4065934065934016) scale(2.81 2.81)" >
	<path d="M 44.155 17.006 c 0.689 -0.258 1.435 -0.232 2.103 0.071 c 0.668 0.304 1.178 0.85 1.436 1.537 c 0.193 0.518 0.773 0.777 1.287 0.585 c 0.518 -0.194 0.779 -0.771 0.586 -1.288 c -0.445 -1.188 -1.326 -2.131 -2.481 -2.656 c -0.351 -0.159 -0.716 -0.259 -1.085 -0.33 V 13.74 c 0 -0.552 -0.448 -1 -1 -1 s -1 0.448 -1 1 v 1.247 c -0.183 0.045 -0.368 0.079 -0.547 0.146 c -1.188 0.446 -2.131 1.327 -2.656 2.481 s -0.569 2.445 -0.124 3.632 c 0.528 1.408 1.661 2.459 3.046 2.863 l 1.935 0.707 c 0.838 0.246 1.495 0.854 1.799 1.667 c 0.532 1.419 -0.189 3.006 -1.609 3.539 c -1.42 0.533 -3.007 -0.189 -3.539 -1.608 c -0.194 -0.517 -0.771 -0.777 -1.288 -0.585 c -0.517 0.194 -0.779 0.771 -0.585 1.288 c 0.603 1.607 1.992 2.687 3.566 2.988 v 1.184 c 0 0.552 0.448 1 1 1 s 1 -0.448 1 -1 v -1.242 c 0.183 -0.045 0.367 -0.083 0.548 -0.151 c 2.451 -0.919 3.698 -3.662 2.779 -6.114 c -0.529 -1.407 -1.662 -2.458 -3.047 -2.863 l -1.935 -0.707 c -0.838 -0.246 -1.494 -0.854 -1.799 -1.667 c -0.258 -0.688 -0.233 -1.434 0.071 -2.103 C 42.921 17.774 43.467 17.264 44.155 17.006 z" style="stroke: none; stroke-width: 1; stroke-dasharray: none; stroke-linecap: butt; stroke-linejoin: miter; stroke-miterlimit: 10; fill: rgb(0,0,0); fill-rule: nonzero; opacity: 1;" transform=" matrix(1 0 0 1 0 0) " stroke-linecap="round" />
	<path d="M 24.628 33.163 c 0.509 -0.214 0.748 -0.801 0.534 -1.31 c -1.112 -2.643 -1.676 -5.448 -1.676 -8.339 C 23.486 11.651 33.137 2 45 2 c 11.863 0 21.515 9.651 21.515 21.514 c 0 2.891 -0.564 5.696 -1.677 8.338 c -0.214 0.509 0.024 1.096 0.534 1.31 c 0.126 0.053 0.258 0.079 0.388 0.079 c 0.39 0 0.761 -0.23 0.922 -0.612 c 1.216 -2.889 1.833 -5.956 1.833 -9.115 C 68.515 10.548 57.966 0 45 0 S 21.486 10.548 21.486 23.514 c 0 3.158 0.617 6.225 1.833 9.114 C 23.533 33.137 24.119 33.375 24.628 33.163 z" style="stroke: none; stroke-width: 1; stroke-dasharray: none; stroke-linecap: butt; stroke-linejoin: miter; stroke-miterlimit: 10; fill: rgb(0,0,0); fill-rule: nonzero; opacity: 1;" transform=" matrix(1 0 0 1 0 0) " stroke-linecap="round" />
	<path d="M 38.827 8.771 c -1.93 0.807 -3.657 1.964 -5.131 3.439 s -2.632 3.201 -3.439 5.131 c -0.213 0.509 0.027 1.095 0.537 1.308 c 0.126 0.053 0.257 0.078 0.385 0.078 c 0.391 0 0.763 -0.231 0.923 -0.615 c 0.707 -1.689 1.719 -3.199 3.008 -4.489 s 2.8 -2.302 4.489 -3.008 c 0.51 -0.213 0.75 -0.799 0.537 -1.308 C 39.922 8.798 39.337 8.559 38.827 8.771 z" style="stroke: none; stroke-width: 1; stroke-dasharray: none; stroke-linecap: butt; stroke-linejoin: miter; stroke-miterlimit: 10; fill: rgb(0,0,0); fill-rule: nonzero; opacity: 1;" transform=" matrix(1 0 0 1 0 0) " stroke-linecap="round" />
	<path d="M 50.452 57.363 c -0.437 -0.336 -1.064 -0.258 -1.403 0.179 c -0.338 0.437 -0.258 1.064 0.179 1.403 c 6.117 4.736 11.821 10.344 17.021 16.739 c 1.049 1.063 1.039 2.781 -0.024 3.831 c -1.012 0.999 -2.946 0.889 -4.057 -0.236 c -0.015 -0.015 -0.036 -0.02 -0.051 -0.035 c -0.062 -0.071 -0.108 -0.15 -0.175 -0.217 L 51.907 68.869 c -0.39 -0.392 -1.021 -0.396 -1.415 -0.009 c -0.393 0.389 -0.396 1.021 -0.009 1.415 l 10.034 10.158 c 1.049 1.063 1.039 2.78 -0.024 3.831 c -0.512 0.505 -1.204 0.783 -1.92 0.776 c -0.727 -0.004 -1.405 -0.289 -1.911 -0.801 l -2.221 -2.248 c -0.002 -0.002 -0.003 -0.004 -0.004 -0.005 L 44.402 71.828 c -0.388 -0.392 -1.021 -0.396 -1.414 -0.009 c -0.393 0.389 -0.397 1.021 -0.009 1.415 l 10.034 10.158 c 1.049 1.063 1.039 2.78 -0.024 3.831 c -0.512 0.505 -1.198 0.787 -1.92 0.776 c -0.727 -0.004 -1.405 -0.289 -1.91 -0.801 L 36.898 74.787 c -0.389 -0.392 -1.021 -0.396 -1.414 -0.009 c -0.393 0.389 -0.397 1.021 -0.009 1.415 l 10.65 10.781 c -6.763 3.441 -17.943 -8.556 -28.058 -20.4 l 6.35 -20.502 h 4.386 c 0.552 0 1 -0.448 1 -1 s -0.448 -1 -1 -1 h -3.767 l 0.735 -2.373 c 0.083 -0.266 0.05 -0.553 -0.088 -0.794 c -0.138 -0.241 -0.371 -0.414 -0.642 -0.476 c -7.911 -1.826 -14.364 -2.813 -20.31 -3.108 c -0.266 -0.016 -0.54 0.085 -0.739 0.274 c -0.198 0.189 -0.311 0.451 -0.311 0.725 v 31.468 c 0 0.553 0.448 1 1 1 h 11.342 c 0.438 0 0.826 -0.285 0.955 -0.704 l 0.388 -1.251 c 9.316 10.849 18.783 20.782 26.204 20.782 c 1.419 0 2.762 -0.37 4.016 -1.159 l 0.148 0.15 c 0.881 0.892 2.061 1.387 3.32 1.395 c 0.011 0 0.021 0 0.03 0 c 1.25 0 2.424 -0.48 3.309 -1.354 c 0.719 -0.711 1.165 -1.619 1.32 -2.604 c 0.812 0.631 1.795 0.993 2.845 0.999 c 0.011 0 0.021 0 0.03 0 c 1.25 0 2.424 -0.48 3.309 -1.354 c 1.004 -0.991 1.448 -2.325 1.369 -3.634 c 0.378 0.084 0.761 0.139 1.144 0.139 c 1.197 0 2.368 -0.414 3.218 -1.254 c 0.892 -0.881 1.387 -2.061 1.395 -3.32 c 0.008 -1.261 -0.473 -2.446 -1.289 -3.266 C 62.505 67.91 56.69 62.194 50.452 57.363 z M 5.683 68.788 v -29.41 c 5.271 0.332 11.001 1.218 17.859 2.761 l -8.254 26.648 H 5.683 z" style="stroke: none; stroke-width: 1; stroke-dasharray: none; stroke-linecap: butt; stroke-linejoin: miter; stroke-miterlimit: 10; fill: rgb(0,0,0); fill-rule: nonzero; opacity: 1;" transform=" matrix(1 0 0 1 0 0) " stroke-linecap="round" />
	<path d="M 86.007 37.596 c -0.198 -0.188 -0.465 -0.288 -0.739 -0.274 c -5.945 0.294 -12.399 1.282 -20.31 3.108 c -0.271 0.063 -0.504 0.235 -0.643 0.476 c -0.139 0.241 -0.17 0.529 -0.088 0.794 l 0.717 2.314 c -5.829 -2.176 -13.956 -3.422 -20.998 -3.149 c -3.902 0 -8.645 2.749 -12.687 7.354 c -3.783 4.309 -5.863 9.059 -5.427 12.396 c 0.034 0.259 0.167 0.493 0.371 0.655 c 1.43 1.133 2.942 1.701 4.549 1.701 c 2.699 -0.001 5.666 -1.604 8.959 -4.823 c 2.305 -0.007 5.111 -1.504 6.344 -2.351 c 0.455 -0.313 0.571 -0.935 0.259 -1.391 c -0.313 -0.455 -0.935 -0.572 -1.391 -0.258 c -1.584 1.088 -4.079 2.122 -5.508 1.986 c -0.297 -0.029 -0.594 0.076 -0.806 0.289 c -5.669 5.684 -8.772 5.002 -10.83 3.53 c -0.134 -2.743 1.78 -6.769 4.982 -10.416 c 3.613 -4.116 7.899 -6.673 11.223 -6.674 c 7.471 -0.283 16.112 1.161 21.723 3.614 l 6.523 21.058 l -3.409 2.075 c -0.473 0.287 -0.622 0.902 -0.335 1.374 c 0.188 0.31 0.518 0.48 0.855 0.48 c 0.177 0 0.356 -0.047 0.519 -0.146 l 2.98 -1.814 l 0.179 0.578 c 0.13 0.419 0.517 0.704 0.955 0.704 h 11.343 c 0.553 0 1 -0.447 1 -1 V 38.32 C 86.317 38.046 86.205 37.785 86.007 37.596 z M 84.317 68.788 h -9.605 L 66.457 42.14 c 6.858 -1.543 12.589 -2.429 17.86 -2.761 V 68.788 z" style="stroke: none; stroke-width: 1; stroke-dasharray: none; stroke-linecap: butt; stroke-linejoin: miter; stroke-miterlimit: 10; fill: rgb(0,0,0); fill-rule: nonzero; opacity: 1;" transform=" matrix(1 0 0 1 0 0) " stroke-linecap="round" />
</g>
</svg>