<svg xmlns="http://www.w3.org/2000/svg" xmlns:xlink="http://www.w3.org/1999/xlink" version="1.1" width="256" height="256" viewBox="0 0 256 256" xml:space="preserve">

<defs>
</defs>
<g style="stroke: none; stroke-width: 0; stroke-dasharray: none; stroke-linecap: butt; stroke-linejoin: miter; stroke-miterlimit: 10; fill: none; fill-rule: nonzero; opacity: 1;" transform="translate(1.4065934065934016 1.4065934065934016) scale(2.81 2.81)" >
	<path d="M 85.164 29.251 l -8.833 -6.797 V 8.626 c 0 -1.947 -1.584 -3.532 -3.531 -3.532 H 67.3 c -1.947 0 -3.532 1.585 -3.532 3.532 v 4.161 l -14.92 -11.48 c -2.266 -1.743 -5.43 -1.743 -7.695 0 L 4.835 29.251 c -0.848 0.652 -1.173 1.729 -0.829 2.742 c 0.345 1.013 1.259 1.668 2.33 1.668 h 7.333 v 50.136 c 0 3.421 2.783 6.203 6.203 6.203 h 50.256 c 3.42 0 6.202 -2.782 6.202 -6.203 V 33.661 h 7.334 c 1.07 0 1.984 -0.655 2.329 -1.668 C 86.338 30.979 86.013 29.903 85.164 29.251 z M 65.768 8.626 c 0 -0.845 0.688 -1.532 1.532 -1.532 H 72.8 c 0.845 0 1.531 0.687 1.531 1.532 v 12.289 l -8.563 -6.589 V 8.626 z M 74.331 83.797 c 0 2.317 -1.885 4.203 -4.202 4.203 H 19.872 c -2.317 0 -4.203 -1.886 -4.203 -4.203 V 33.661 h 58.662 V 83.797 z M 84.101 31.349 c -0.04 0.117 -0.149 0.312 -0.436 0.312 H 6.336 c -0.287 0 -0.396 -0.195 -0.436 -0.312 c -0.04 -0.117 -0.072 -0.338 0.155 -0.513 L 42.372 2.892 C 43.146 2.297 44.073 1.999 45 1.999 c 0.927 0 1.855 0.298 2.629 0.893 l 36.316 27.943 C 84.173 31.011 84.14 31.232 84.101 31.349 z" style="stroke: none; stroke-width: 1; stroke-dasharray: none; stroke-linecap: butt; stroke-linejoin: miter; stroke-miterlimit: 10; fill: rgb(0,0,0); fill-rule: nonzero; opacity: 1;" transform=" matrix(1 0 0 1 0 0) " stroke-linecap="round" />
	<path d="M 67.885 51.58 c -0.076 -0.548 -0.58 -0.932 -1.128 -0.853 c -0.547 0.076 -0.929 0.581 -0.853 1.128 c 0.2 1.438 -0.04 3.142 -3.491 3.817 c -2.449 -3.929 -6.798 -6.557 -11.759 -6.557 h -11.12 c -0.078 0 -0.156 0.001 -0.234 0.002 c -1.298 -2.277 -3.736 -3.716 -6.388 -3.716 h -1.711 v 6.519 c -1.484 1.123 -2.739 2.54 -3.67 4.146 h -1.584 c -2.151 0 -3.9 1.75 -3.9 3.9 v 4.407 c 0 2.15 1.75 3.9 3.9 3.9 h 0.784 c 0.899 2.147 2.361 4.082 4.19 5.542 v 1.852 c 0 2.151 1.75 3.901 3.901 3.901 h 4.407 c 1.737 0 3.223 -1.143 3.722 -2.731 h 4.285 c 0.499 1.589 1.985 2.731 3.722 2.731 h 4.407 c 2.15 0 3.9 -1.75 3.9 -3.901 v -1.851 c 3.296 -2.627 5.249 -6.642 5.249 -10.841 c 0 -1.945 -0.407 -3.796 -1.133 -5.477 C 67.589 56.449 68.19 53.759 67.885 51.58 z M 57.673 72.519 l -0.406 0.3 v 2.849 c 0 1.049 -0.853 1.901 -1.9 1.901 h -4.407 c -1.006 0 -1.839 -0.786 -1.897 -1.789 l -0.054 -0.942 h -7.826 l -0.055 0.942 c -0.058 1.003 -0.891 1.789 -1.897 1.789 h -4.407 c -1.048 0 -1.901 -0.853 -1.901 -1.901 v -2.849 l -0.406 -0.3 c -1.895 -1.399 -3.371 -3.382 -4.159 -5.582 l -0.237 -0.663 h -2.172 c -1.048 0 -1.9 -0.853 -1.9 -1.9 v -4.407 c 0 -1.048 0.853 -1.9 1.9 -1.9 h 2.781 l 0.28 -0.538 c 0.886 -1.698 2.187 -3.178 3.764 -4.278 l 0.428 -0.299 v -5.541 c 1.983 0.107 3.764 1.318 4.588 3.145 l 0.286 0.633 l 0.692 -0.046 c 0.258 -0.018 0.515 -0.025 0.767 -0.025 h 11.12 c 6.54 0 11.862 5.32 11.862 11.861 C 62.516 66.713 60.706 70.281 57.673 72.519 z" style="stroke: none; stroke-width: 1; stroke-dasharray: none; stroke-linecap: butt; stroke-linejoin: miter; stroke-miterlimit: 10; fill: rgb(0,0,0); fill-rule: nonzero; opacity: 1;" transform=" matrix(1 0 0 1 0 0) " stroke-linecap="round" />
	<path d="M 51.283 57.773 h -9.28 c -0.552 0 -1 -0.447 -1 -1 c 0 -0.553 0.448 -1 1 -1 h 9.28 c 0.553 0 1 0.447 1 1 C 52.283 57.326 51.836 57.773 51.283 57.773 z" style="stroke: none; stroke-width: 1; stroke-dasharray: none; stroke-linecap: butt; stroke-linejoin: miter; stroke-miterlimit: 10; fill: rgb(0,0,0); fill-rule: nonzero; opacity: 1;" transform=" matrix(1 0 0 1 0 0) " stroke-linecap="round" />
</g>
</svg>