<svg xmlns="http://www.w3.org/2000/svg" xmlns:xlink="http://www.w3.org/1999/xlink" version="1.1" width="256" height="256" viewBox="0 0 256 256" xml:space="preserve">

<defs>
</defs>
<g style="stroke: none; stroke-width: 0; stroke-dasharray: none; stroke-linecap: butt; stroke-linejoin: miter; stroke-miterlimit: 10; fill: none; fill-rule: nonzero; opacity: 1;" transform="translate(1.4065934065934016 1.4065934065934016) scale(2.81 2.81)" >
	<path d="M 82.739 77.361 H 7.262 C 3.258 77.361 0 74.103 0 70.098 V 19.901 c 0 -4.004 3.258 -7.262 7.262 -7.262 h 75.477 c 4.003 0 7.261 3.258 7.261 7.262 V 36.7 H 69.713 c -4.576 0 -8.299 3.723 -8.299 8.3 c 0 4.578 3.723 8.301 8.299 8.301 H 90 v 16.798 C 90 74.103 86.742 77.361 82.739 77.361 z M 7.262 15.606 c -2.368 0 -4.295 1.926 -4.295 4.295 v 50.197 c 0 2.368 1.926 4.295 4.295 4.295 h 75.477 c 2.368 0 4.294 -1.927 4.294 -4.295 V 56.268 h -17.32 c -6.212 0 -11.266 -5.055 -11.266 -11.268 S 63.5 33.733 69.713 33.733 h 17.32 V 19.901 c 0 -2.368 -1.926 -4.295 -4.294 -4.295 H 7.262 z" style="stroke: none; stroke-width: 1; stroke-dasharray: none; stroke-linecap: butt; stroke-linejoin: miter; stroke-miterlimit: 10; fill: rgb(0,0,0); fill-rule: nonzero; opacity: 1;" transform=" matrix(1 0 0 1 0 0) " stroke-linecap="round" />
	<path d="M 90 51.226 H 71.003 c -3.433 0 -6.226 -2.793 -6.226 -6.226 c 0 -3.433 2.793 -6.225 6.226 -6.225 H 90 V 51.226 z M 71.003 41.742 c -1.796 0 -3.259 1.462 -3.259 3.258 c 0 1.797 1.462 3.259 3.259 3.259 h 16.03 v -6.517 H 71.003 z" style="stroke: none; stroke-width: 1; stroke-dasharray: none; stroke-linecap: butt; stroke-linejoin: miter; stroke-miterlimit: 10; fill: rgb(0,0,0); fill-rule: nonzero; opacity: 1;" transform=" matrix(1 0 0 1 0 0) " stroke-linecap="round" />
</g>
</svg>