<svg xmlns="http://www.w3.org/2000/svg" xmlns:xlink="http://www.w3.org/1999/xlink" version="1.1" width="256" height="256" viewBox="0 0 256 256" xml:space="preserve">

<defs>
</defs>
<g style="stroke: none; stroke-width: 0; stroke-dasharray: none; stroke-linecap: butt; stroke-linejoin: miter; stroke-miterlimit: 10; fill: none; fill-rule: nonzero; opacity: 1;" transform="translate(1.4065934065934016 1.4065934065934016) scale(2.81 2.81)" >
	<circle cx="48.864999999999995" cy="44.955" r="24.485" style="stroke: none; stroke-width: 1; stroke-dasharray: none; stroke-linecap: butt; stroke-linejoin: miter; stroke-miterlimit: 10; fill: rgb(253,182,47); fill-rule: nonzero; opacity: 1;" transform="  matrix(1 0 0 1 0 0) "/>
	<rect x="1.67" y="62.46" rx="0" ry="0" width="13.32" height="26.54" style="stroke: none; stroke-width: 1; stroke-dasharray: none; stroke-linecap: butt; stroke-linejoin: miter; stroke-miterlimit: 10; fill: rgb(67,152,209); fill-rule: nonzero; opacity: 1;" transform=" matrix(1 0 0 1 0 0) "/>
	<path d="M 88.143 69.941 c -0.62 -2.025 -2.648 -3.27 -4.733 -2.899 c -6.276 1.117 -13.872 3.445 -21.031 5.124 l -0.001 -0.001 l 0.001 0 c -0.365 -4.064 -3.702 -7.218 -7.779 -7.356 l -1.852 -0.062 c -6.045 0 -12.622 -4.394 -18.218 -4.394 c -4.92 0 -9.669 1.068 -14.897 5.637 c -0.661 0.578 -1.512 0.905 -2.39 0.898 l -1.795 -0.082 v 17.329 h 5.271 c 1.661 0 3.317 0.182 4.939 0.544 l 14.182 3.162 c 1.28 0.285 2.59 0.42 3.901 0.401 l 7.848 -0.114 c 2.2 -0.032 4.371 -0.496 6.392 -1.364 l 27.81 -11.745 C 87.755 74.174 88.769 71.986 88.143 69.941 z" style="stroke: none; stroke-width: 1; stroke-dasharray: none; stroke-linecap: butt; stroke-linejoin: miter; stroke-miterlimit: 10; fill: rgb(254,201,163); fill-rule: nonzero; opacity: 1;" transform=" matrix(1 0 0 1 0 0) " stroke-linecap="round" />
	<path d="M 62.378 73.165 c -0.512 0 -0.948 -0.391 -0.995 -0.91 c -0.319 -3.555 -3.25 -6.325 -6.817 -6.446 l -1.852 -0.063 c 0 0 -0.001 0 -0.002 0 c -3.219 0.001 -6.541 -1.178 -9.754 -2.316 c -3.011 -1.068 -5.855 -2.076 -8.428 -2.076 c -3.991 0 -8.803 0.641 -14.239 5.389 c -0.855 0.747 -1.929 1.133 -3.056 1.146 l -2.287 -0.104 c -0.552 -0.025 -0.979 -0.493 -0.954 -1.045 c 0.025 -0.552 0.495 -0.98 1.044 -0.953 l 2.25 0.103 c 0.586 -0.002 1.2 -0.227 1.687 -0.652 c 5.935 -5.184 11.193 -5.883 15.555 -5.883 c 2.916 0 6.058 1.113 9.096 2.19 c 3.055 1.083 6.213 2.203 9.123 2.203 l 1.886 0.063 c 4.573 0.154 8.331 3.707 8.741 8.265 c 0.05 0.551 -0.356 1.036 -0.906 1.086 C 62.438 73.164 62.407 73.165 62.378 73.165 z" style="stroke: none; stroke-width: 1; stroke-dasharray: none; stroke-linecap: butt; stroke-linejoin: miter; stroke-miterlimit: 10; fill: rgb(0,0,0); fill-rule: nonzero; opacity: 1;" transform=" matrix(1 0 0 1 0 0) " stroke-linecap="round" />
	<path d="M 43.502 89.244 c -1.308 0 -2.612 -0.144 -3.881 -0.428 l -14.181 -3.162 c -1.548 -0.345 -3.136 -0.52 -4.721 -0.52 h -5.726 c -0.552 0 -1 -0.447 -1 -1 s 0.448 -1 1 -1 h 5.726 c 1.73 0 3.465 0.191 5.156 0.568 l 14.182 3.162 c 1.2 0.268 2.444 0.391 3.669 0.377 l 7.848 -0.114 c 2.078 -0.03 4.101 -0.462 6.012 -1.283 l 27.816 -11.747 c 1.492 -0.643 2.263 -2.305 1.785 -3.864 c -0.472 -1.54 -2.016 -2.485 -3.603 -2.207 c -3.839 0.684 -8.121 1.81 -12.654 3.002 c -12.312 3.238 -25.041 6.585 -30.755 1.343 c -0.407 -0.374 -0.435 -1.006 -0.061 -1.413 c 0.373 -0.406 1.005 -0.435 1.413 -0.062 c 4.912 4.506 17.652 1.155 28.895 -1.802 c 4.574 -1.203 8.895 -2.34 12.813 -3.037 c 2.572 -0.467 5.097 1.085 5.864 3.59 c 0.776 2.537 -0.476 5.241 -2.913 6.29 L 58.369 87.685 c -2.146 0.923 -4.425 1.409 -6.766 1.443 l -7.849 0.114 C 43.67 89.243 43.586 89.244 43.502 89.244 z" style="stroke: none; stroke-width: 1; stroke-dasharray: none; stroke-linecap: butt; stroke-linejoin: miter; stroke-miterlimit: 10; fill: rgb(0,0,0); fill-rule: nonzero; opacity: 1;" transform=" matrix(1 0 0 1 0 0) " stroke-linecap="round" />
	<path d="M 14.993 90 H 1.672 c -0.552 0 -1 -0.447 -1 -1 V 62.462 c 0 -0.553 0.448 -1 1 -1 h 13.321 c 0.552 0 1 0.447 1 1 V 89 C 15.993 89.553 15.545 90 14.993 90 z M 2.672 88 h 11.321 V 63.462 H 2.672 V 88 z" style="stroke: none; stroke-width: 1; stroke-dasharray: none; stroke-linecap: butt; stroke-linejoin: miter; stroke-miterlimit: 10; fill: rgb(0,0,0); fill-rule: nonzero; opacity: 1;" transform=" matrix(1 0 0 1 0 0) " stroke-linecap="round" />
	<path d="M 65.197 64.432 c -0.276 0 -0.552 -0.114 -0.749 -0.338 c -0.366 -0.414 -0.327 -1.046 0.087 -1.411 c 5.06 -4.473 7.962 -10.908 7.962 -17.657 c 0 -12.99 -10.568 -23.558 -23.559 -23.558 c -12.99 0 -23.558 10.568 -23.558 23.558 c 0 2.888 0.516 5.708 1.534 8.381 c 0.196 0.516 -0.063 1.094 -0.579 1.29 c -0.516 0.198 -1.094 -0.063 -1.291 -0.579 c -1.105 -2.9 -1.665 -5.96 -1.665 -9.092 c 0 -14.092 11.465 -25.558 25.558 -25.558 c 14.093 0 25.559 11.465 25.559 25.558 c 0 7.321 -3.148 14.303 -8.638 19.155 C 65.669 64.349 65.433 64.432 65.197 64.432 z" style="stroke: none; stroke-width: 1; stroke-dasharray: none; stroke-linecap: butt; stroke-linejoin: miter; stroke-miterlimit: 10; fill: rgb(0,0,0); fill-rule: nonzero; opacity: 1;" transform=" matrix(1 0 0 1 0 0) " stroke-linecap="round" />
	<path d="M 48.771 56.559 c -0.864 0 -1.727 -0.185 -2.536 -0.553 c -1.493 -0.679 -2.632 -1.897 -3.208 -3.432 c -0.194 -0.518 0.068 -1.094 0.585 -1.288 c 0.518 -0.19 1.093 0.068 1.288 0.585 c 0.388 1.035 1.156 1.856 2.162 2.313 c 1.005 0.457 2.13 0.496 3.164 0.107 c 2.137 -0.801 3.223 -3.19 2.422 -5.327 c -0.459 -1.225 -1.446 -2.139 -2.708 -2.509 l -2.629 -0.961 c -1.809 -0.529 -3.273 -1.887 -3.956 -3.707 c -1.188 -3.169 0.423 -6.713 3.591 -7.902 c 3.176 -1.188 6.715 0.424 7.902 3.592 c 0.193 0.517 -0.068 1.094 -0.586 1.288 c -0.513 0.191 -1.093 -0.068 -1.287 -0.585 c -0.801 -2.136 -3.188 -3.223 -5.327 -2.421 c -2.135 0.801 -3.222 3.19 -2.42 5.327 c 0.459 1.225 1.446 2.14 2.708 2.51 l 2.629 0.96 c 1.81 0.529 3.274 1.887 3.956 3.707 c 1.188 3.169 -0.424 6.713 -3.593 7.901 C 50.228 56.428 49.499 56.559 48.771 56.559 z" style="stroke: none; stroke-width: 1; stroke-dasharray: none; stroke-linecap: butt; stroke-linejoin: miter; stroke-miterlimit: 10; fill: rgb(0,0,0); fill-rule: nonzero; opacity: 1;" transform=" matrix(1 0 0 1 0 0) " stroke-linecap="round" />
	<path d="M 48.938 35.502 c -0.553 0 -1 -0.448 -1 -1 v -2.871 c 0 -0.552 0.447 -1 1 -1 s 1 0.448 1 1 v 2.871 C 49.938 35.054 49.491 35.502 48.938 35.502 z" style="stroke: none; stroke-width: 1; stroke-dasharray: none; stroke-linecap: butt; stroke-linejoin: miter; stroke-miterlimit: 10; fill: rgb(0,0,0); fill-rule: nonzero; opacity: 1;" transform=" matrix(1 0 0 1 0 0) " stroke-linecap="round" />
	<path d="M 48.938 59.421 c -0.553 0 -1 -0.447 -1 -1 V 55.55 c 0 -0.553 0.447 -1 1 -1 s 1 0.447 1 1 v 2.871 C 49.938 58.974 49.491 59.421 48.938 59.421 z" style="stroke: none; stroke-width: 1; stroke-dasharray: none; stroke-linecap: butt; stroke-linejoin: miter; stroke-miterlimit: 10; fill: rgb(0,0,0); fill-rule: nonzero; opacity: 1;" transform=" matrix(1 0 0 1 0 0) " stroke-linecap="round" />
	<path d="M 48.938 15.141 c -0.553 0 -1 -0.448 -1 -1 V 1 c 0 -0.552 0.447 -1 1 -1 s 1 0.448 1 1 v 13.141 C 49.938 14.693 49.491 15.141 48.938 15.141 z" style="stroke: none; stroke-width: 1; stroke-dasharray: none; stroke-linecap: butt; stroke-linejoin: miter; stroke-miterlimit: 10; fill: rgb(0,0,0); fill-rule: nonzero; opacity: 1;" transform=" matrix(1 0 0 1 0 0) " stroke-linecap="round" />
	<path d="M 29.245 20.065 c -0.552 0 -1 -0.448 -1 -1 V 8.878 c 0 -0.552 0.448 -1 1 -1 s 1 0.448 1 1 v 10.187 C 30.245 19.617 29.797 20.065 29.245 20.065 z" style="stroke: none; stroke-width: 1; stroke-dasharray: none; stroke-linecap: butt; stroke-linejoin: miter; stroke-miterlimit: 10; fill: rgb(0,0,0); fill-rule: nonzero; opacity: 1;" transform=" matrix(1 0 0 1 0 0) " stroke-linecap="round" />
	<path d="M 68.633 20.065 c -0.553 0 -1 -0.448 -1 -1 V 8.878 c 0 -0.552 0.447 -1 1 -1 s 1 0.448 1 1 v 10.187 C 69.633 19.617 69.186 20.065 68.633 20.065 z" style="stroke: none; stroke-width: 1; stroke-dasharray: none; stroke-linecap: butt; stroke-linejoin: miter; stroke-miterlimit: 10; fill: rgb(0,0,0); fill-rule: nonzero; opacity: 1;" transform=" matrix(1 0 0 1 0 0) " stroke-linecap="round" />
</g>
</svg>