<svg xmlns="http://www.w3.org/2000/svg" xmlns:xlink="http://www.w3.org/1999/xlink" version="1.1" width="256" height="256" viewBox="0 0 256 256" xml:space="preserve">

<defs>
</defs>
<g style="stroke: none; stroke-width: 0; stroke-dasharray: none; stroke-linecap: butt; stroke-linejoin: miter; stroke-miterlimit: 10; fill: none; fill-rule: nonzero; opacity: 1;" transform="translate(1.4065934065934016 1.4065934065934016) scale(2.81 2.81)" >
	<path d="M 74.067 90 H 15.933 c -1.766 0 -3.198 -1.432 -3.198 -3.198 V 3.198 C 12.734 1.432 14.166 0 15.933 0 h 58.134 c 1.766 0 3.198 1.432 3.198 3.198 v 83.603 C 77.266 88.568 75.834 90 74.067 90 z" style="stroke: none; stroke-width: 1; stroke-dasharray: none; stroke-linecap: butt; stroke-linejoin: miter; stroke-miterlimit: 10; fill: rgb(138,168,189); fill-rule: nonzero; opacity: 1;" transform=" matrix(1 0 0 1 0 0) " stroke-linecap="round" />
	<path d="M 67.352 29.179 H 22.648 c -1.2 0 -2.173 -0.973 -2.173 -2.173 V 9.914 c 0 -1.2 0.973 -2.173 2.173 -2.173 h 44.704 c 1.2 0 2.173 0.973 2.173 2.173 v 17.092 C 69.525 28.206 68.552 29.179 67.352 29.179 z" style="stroke: none; stroke-width: 1; stroke-dasharray: none; stroke-linecap: butt; stroke-linejoin: miter; stroke-miterlimit: 10; fill: rgb(213,234,121); fill-rule: nonzero; opacity: 1;" transform=" matrix(1 0 0 1 0 0) " stroke-linecap="round" />
	<path d="M 38.853 55.848 H 22.648 c -1.2 0 -2.173 -0.973 -2.173 -2.173 V 40.299 c 0 -1.2 0.973 -2.173 2.173 -2.173 h 16.205 c 1.2 0 2.173 0.973 2.173 2.173 v 13.375 C 41.026 54.875 40.053 55.848 38.853 55.848 z" style="stroke: none; stroke-width: 1; stroke-dasharray: none; stroke-linecap: butt; stroke-linejoin: miter; stroke-miterlimit: 10; fill: rgb(197,211,222); fill-rule: nonzero; opacity: 1;" transform=" matrix(1 0 0 1 0 0) " stroke-linecap="round" />
	<path d="M 67.352 55.848 H 51.147 c -1.2 0 -2.173 -0.973 -2.173 -2.173 V 40.299 c 0 -1.2 0.973 -2.173 2.173 -2.173 h 16.205 c 1.2 0 2.173 0.973 2.173 2.173 v 13.375 C 69.525 54.875 68.552 55.848 67.352 55.848 z" style="stroke: none; stroke-width: 1; stroke-dasharray: none; stroke-linecap: butt; stroke-linejoin: miter; stroke-miterlimit: 10; fill: rgb(197,211,222); fill-rule: nonzero; opacity: 1;" transform=" matrix(1 0 0 1 0 0) " stroke-linecap="round" />
	<path d="M 38.853 82.26 H 22.648 c -1.2 0 -2.173 -0.973 -2.173 -2.173 V 66.711 c 0 -1.2 0.973 -2.173 2.173 -2.173 h 16.205 c 1.2 0 2.173 0.973 2.173 2.173 v 13.375 C 41.026 81.287 40.053 82.26 38.853 82.26 z" style="stroke: none; stroke-width: 1; stroke-dasharray: none; stroke-linecap: butt; stroke-linejoin: miter; stroke-miterlimit: 10; fill: rgb(197,211,222); fill-rule: nonzero; opacity: 1;" transform=" matrix(1 0 0 1 0 0) " stroke-linecap="round" />
	<path d="M 67.352 82.26 H 51.147 c -1.2 0 -2.173 -0.973 -2.173 -2.173 V 66.711 c 0 -1.2 0.973 -2.173 2.173 -2.173 h 16.205 c 1.2 0 2.173 0.973 2.173 2.173 v 13.375 C 69.525 81.287 68.552 82.26 67.352 82.26 z" style="stroke: none; stroke-width: 1; stroke-dasharray: none; stroke-linecap: butt; stroke-linejoin: miter; stroke-miterlimit: 10; fill: rgb(255,125,151); fill-rule: nonzero; opacity: 1;" transform=" matrix(1 0 0 1 0 0) " stroke-linecap="round" />
	<path d="M 30.75 52.154 c -0.565 0 -1.023 -0.457 -1.023 -1.023 v -8.289 c 0 -0.565 0.458 -1.023 1.023 -1.023 c 0.565 0 1.023 0.458 1.023 1.023 v 8.289 C 31.773 51.697 31.315 52.154 30.75 52.154 z" style="stroke: none; stroke-width: 1; stroke-dasharray: none; stroke-linecap: butt; stroke-linejoin: miter; stroke-miterlimit: 10; fill: rgb(53,83,103); fill-rule: nonzero; opacity: 1;" transform=" matrix(1 0 0 1 0 0) " stroke-linecap="round" />
	<path d="M 34.895 48.009 h -8.289 c -0.565 0 -1.023 -0.457 -1.023 -1.023 s 0.458 -1.023 1.023 -1.023 h 8.289 c 0.565 0 1.023 0.457 1.023 1.023 S 35.46 48.009 34.895 48.009 z" style="stroke: none; stroke-width: 1; stroke-dasharray: none; stroke-linecap: butt; stroke-linejoin: miter; stroke-miterlimit: 10; fill: rgb(53,83,103); fill-rule: nonzero; opacity: 1;" transform=" matrix(1 0 0 1 0 0) " stroke-linecap="round" />
	<path d="M 56.319 50.941 c -0.262 0 -0.523 -0.1 -0.723 -0.3 c -0.4 -0.4 -0.4 -1.047 0 -1.446 l 5.862 -5.862 c 0.4 -0.4 1.047 -0.4 1.446 0 c 0.4 0.4 0.4 1.047 0 1.446 l -5.862 5.862 C 56.842 50.841 56.581 50.941 56.319 50.941 z" style="stroke: none; stroke-width: 1; stroke-dasharray: none; stroke-linecap: butt; stroke-linejoin: miter; stroke-miterlimit: 10; fill: rgb(53,83,103); fill-rule: nonzero; opacity: 1;" transform=" matrix(1 0 0 1 0 0) " stroke-linecap="round" />
	<path d="M 62.181 50.941 c -0.262 0 -0.523 -0.1 -0.723 -0.3 l -5.862 -5.862 c -0.4 -0.4 -0.4 -1.047 0 -1.446 c 0.4 -0.4 1.047 -0.4 1.446 0 l 5.862 5.862 c 0.4 0.4 0.4 1.047 0 1.446 C 62.704 50.841 62.442 50.941 62.181 50.941 z" style="stroke: none; stroke-width: 1; stroke-dasharray: none; stroke-linecap: butt; stroke-linejoin: miter; stroke-miterlimit: 10; fill: rgb(53,83,103); fill-rule: nonzero; opacity: 1;" transform=" matrix(1 0 0 1 0 0) " stroke-linecap="round" />
	<path d="M 34.895 74.421 h -8.289 c -0.565 0 -1.023 -0.457 -1.023 -1.023 c 0 -0.565 0.458 -1.023 1.023 -1.023 h 8.289 c 0.565 0 1.023 0.457 1.023 1.023 C 35.918 73.964 35.46 74.421 34.895 74.421 z" style="stroke: none; stroke-width: 1; stroke-dasharray: none; stroke-linecap: butt; stroke-linejoin: miter; stroke-miterlimit: 10; fill: rgb(53,83,103); fill-rule: nonzero; opacity: 1;" transform=" matrix(1 0 0 1 0 0) " stroke-linecap="round" />
	<path d="M 56.319 77.353 c -0.262 0 -0.523 -0.1 -0.723 -0.3 c -0.4 -0.399 -0.4 -1.047 0 -1.446 l 5.862 -5.862 c 0.4 -0.4 1.047 -0.4 1.446 0 c 0.4 0.399 0.4 1.047 0 1.446 l -5.862 5.862 C 56.842 77.253 56.581 77.353 56.319 77.353 z" style="stroke: none; stroke-width: 1; stroke-dasharray: none; stroke-linecap: butt; stroke-linejoin: miter; stroke-miterlimit: 10; fill: rgb(53,83,103); fill-rule: nonzero; opacity: 1;" transform=" matrix(1 0 0 1 0 0) " stroke-linecap="round" />
	<circle cx="59.253" cy="73.40299999999999" r="0.943" style="stroke: none; stroke-width: 1; stroke-dasharray: none; stroke-linecap: butt; stroke-linejoin: miter; stroke-miterlimit: 10; fill: rgb(53,83,103); fill-rule: nonzero; opacity: 1;" transform="  matrix(1 0 0 1 0 0) "/>
	<circle cx="56.422999999999995" cy="70.573" r="0.943" style="stroke: none; stroke-width: 1; stroke-dasharray: none; stroke-linecap: butt; stroke-linejoin: miter; stroke-miterlimit: 10; fill: rgb(53,83,103); fill-rule: nonzero; opacity: 1;" transform="  matrix(1 0 0 1 0 0) "/>
	<circle cx="62.083" cy="76.233" r="0.943" style="stroke: none; stroke-width: 1; stroke-dasharray: none; stroke-linecap: butt; stroke-linejoin: miter; stroke-miterlimit: 10; fill: rgb(53,83,103); fill-rule: nonzero; opacity: 1;" transform="  matrix(1 0 0 1 0 0) "/>
	<path d="M 60.092 25.344 c -2.933 0 -5.319 -2.387 -5.319 -5.32 v -3.13 c 0 -2.933 2.386 -5.32 5.319 -5.32 s 5.32 2.387 5.32 5.32 v 3.13 C 65.413 22.958 63.026 25.344 60.092 25.344 z M 60.092 13.62 c -1.805 0 -3.274 1.469 -3.274 3.274 v 3.13 c 0 1.806 1.469 3.274 3.274 3.274 c 1.806 0 3.275 -1.469 3.275 -3.274 v -3.13 C 63.367 15.089 61.898 13.62 60.092 13.62 z" style="stroke: none; stroke-width: 1; stroke-dasharray: none; stroke-linecap: butt; stroke-linejoin: miter; stroke-miterlimit: 10; fill: rgb(53,83,103); fill-rule: nonzero; opacity: 1;" transform=" matrix(1 0 0 1 0 0) " stroke-linecap="round" />
</g>
</svg>